<svg width="141" height="80" viewBox="0 0 141 80" fill="none" xmlns="http://www.w3.org/2000/svg">
<g clip-path="url(#clip0_1016_1585)">
<path d="M18.1448 75.3049C18.1448 75.4265 18.0916 75.4873 17.9877 75.4873H17.5089C17.4075 75.4873 17.3594 75.4265 17.3594 75.3049V72.7536C17.3594 72.6472 17.41 72.5914 17.5089 72.5914H17.9978C18.0941 72.5914 18.1422 72.6497 18.1422 72.7637V75.3049H18.1448Z" fill="#4A4A49"/>
<path d="M24.0422 76.0725C23.9105 76.6983 23.6571 77.1391 23.2847 77.3925C22.9655 77.6104 22.5044 77.7193 21.9014 77.7193H21.5644C21.0273 77.7193 20.6219 77.6104 20.3483 77.3925C20.0493 77.1467 19.8543 76.749 19.7605 76.1966L19.2006 72.7738C19.1803 72.6522 19.2183 72.5914 19.3146 72.5914H19.8289C19.9429 72.5914 20.0063 72.6446 20.0215 72.7535L20.442 75.6266L20.6346 75.5582C20.9842 75.4467 21.1945 75.1579 21.2629 74.6917L21.5492 72.7738C21.5771 72.6522 21.6404 72.5914 21.7418 72.5914H22.2459C22.3422 72.5914 22.3802 72.6497 22.3599 72.7637L22.023 74.7019C21.9267 75.2668 21.6328 75.6469 21.1388 75.8394L20.5206 76.0826L20.551 76.2955C20.6371 76.7971 20.9564 77.0479 21.5061 77.0479H21.985C22.6766 77.0479 23.082 76.749 23.2011 76.1536L23.9029 72.7079C23.9206 72.6294 23.9713 72.5889 24.0524 72.5889H24.592C24.6984 72.5889 24.739 72.6497 24.7111 72.7713L24.0397 76.07L24.0422 76.0725Z" fill="#4A4A49"/>
<path d="M26.7397 77.4863C26.7397 77.6079 26.6865 77.6687 26.5775 77.6687H26.0987C25.9974 77.6687 25.9492 77.6079 25.9492 77.4863V72.7536C25.9492 72.6472 26.0024 72.5914 26.1114 72.5914H26.5902C26.6916 72.5914 26.7397 72.6497 26.7397 72.7637V77.4863Z" fill="#4A4A49"/>
<path d="M30.0075 77.5293C30.0075 77.623 29.9568 77.6686 29.858 77.6686H27.9198C27.8235 77.6686 27.7754 77.618 27.7754 77.5192V77.129C27.7754 77.0226 27.8235 76.9669 27.9198 76.9669H29.2297V73.8075C29.2297 73.43 29.0016 73.24 28.5481 73.24C28.4189 73.24 28.2872 73.2501 28.1529 73.2704C28.0034 73.2957 27.9299 73.2628 27.9299 73.1767V72.8549C27.9299 72.7586 27.973 72.6927 28.0591 72.6623C28.2112 72.6066 28.4316 72.5787 28.7179 72.5787C29.1587 72.5787 29.483 72.6877 29.6908 72.9081C29.901 73.1285 30.0049 73.4883 30.0049 73.9925V77.5268L30.0075 77.5293Z" fill="#4A4A49"/>
<path d="M34.9124 77.6687C34.8364 77.6687 34.768 77.6281 34.7097 77.5496L32.6879 74.9147C32.5587 75.0008 32.4549 75.1681 32.3713 75.4138C32.3459 75.4797 32.313 75.5886 32.2724 75.7381C32.2319 75.8901 32.1812 76.0852 32.123 76.3284L31.8265 77.5395C31.8063 77.6256 31.7556 77.6687 31.6771 77.6687H31.1273C31.0411 77.6687 31.0133 77.6155 31.0437 77.5065L31.3502 76.2068C31.4668 75.6976 31.6771 75.2871 31.9786 74.9755L32.3941 74.5499L31.0538 72.784C31.0234 72.746 31.0133 72.7054 31.0285 72.6649C31.0462 72.6168 31.0715 72.5914 31.107 72.5914H31.7049C31.8012 72.5914 31.8797 72.632 31.938 72.7105L33.6887 75.049H33.714C33.7875 75.0034 33.8787 74.8843 33.9902 74.6892C34.1295 74.4333 34.2309 74.1521 34.2968 73.8481L34.5501 72.7105C34.5678 72.632 34.6236 72.5914 34.7224 72.5914H35.2418C35.3482 72.5914 35.3887 72.6522 35.3609 72.7738L35.148 73.7087C35.0416 74.1926 34.806 74.6157 34.4462 74.9755L34.0003 75.4214L35.5838 77.4736C35.6193 77.5141 35.6294 77.5572 35.6142 77.6028C35.5965 77.6433 35.5686 77.6661 35.5306 77.6661H34.9124V77.6687Z" fill="#4A4A49"/>
<path d="M40.56 77.4862C40.56 77.6079 40.5093 77.6687 40.4105 77.6687H39.9316C39.8278 77.6687 39.7746 77.6079 39.7746 77.4862V73.9215C39.7746 73.6175 39.6631 73.4199 39.4427 73.3337C39.2653 73.2704 38.8599 73.24 38.2215 73.24C37.9732 73.24 37.4614 73.2704 36.6887 73.3337C36.5164 73.3515 36.4277 73.316 36.4277 73.2299V72.865C36.4277 72.7738 36.5113 72.7105 36.676 72.6725C36.9218 72.6269 37.1878 72.5939 37.4716 72.5711C37.7553 72.5483 38.0644 72.5382 38.3963 72.5382C39.1437 72.5382 39.6682 72.6117 39.9696 72.7612C40.3598 72.9436 40.5574 73.2957 40.5574 73.8151V77.4837L40.56 77.4862ZM37.3499 77.4862C37.3499 77.6079 37.2967 77.6687 37.1878 77.6687H36.709C36.6076 77.6687 36.5595 77.6079 36.5595 77.4862V75.7508C36.5595 75.4594 36.6279 75.168 36.7622 74.8767C36.8027 74.7855 36.861 74.7424 36.9344 74.7424H37.2309C37.3094 74.7424 37.3499 74.7956 37.3499 74.9045V77.4862Z" fill="#4A4A49"/>
<path d="M44.7573 79.6119C44.7573 79.7335 44.7041 79.7943 44.5951 79.7943H44.1163C44.0149 79.7943 43.9668 79.7335 43.9668 79.6119V72.784C43.9668 72.6548 44.0175 72.5914 44.1163 72.5914H44.6053C44.7066 72.5914 44.7547 72.6548 44.7547 72.784V79.6119H44.7573Z" fill="#4A4A49"/>
<path d="M46.9233 77.4863C46.9233 77.6079 46.8701 77.6687 46.7611 77.6687H46.2823C46.1809 77.6687 46.1328 77.6079 46.1328 77.4863V72.7536C46.1328 72.6472 46.186 72.5914 46.295 72.5914H46.7738C46.8751 72.5914 46.9233 72.6497 46.9233 72.7637V77.4863Z" fill="#4A4A49"/>
<path d="M52.2924 77.4862C52.2924 77.6079 52.2417 77.6687 52.1429 77.6687H51.6641C51.5602 77.6687 51.507 77.6079 51.507 77.4862V73.9215C51.507 73.6175 51.3955 73.4199 51.1751 73.3337C50.9977 73.2704 50.5924 73.24 49.9539 73.24C49.7056 73.24 49.1938 73.2704 48.4211 73.3337C48.2488 73.3515 48.1602 73.316 48.1602 73.2299V72.865C48.1602 72.7738 48.2438 72.7105 48.4084 72.6725C48.6542 72.6269 48.9202 72.5939 49.204 72.5711C49.4877 72.5483 49.7968 72.5382 50.1287 72.5382C50.8761 72.5382 51.4006 72.6117 51.7021 72.7612C52.0922 72.9436 52.2899 73.2957 52.2899 73.8151V77.4837L52.2924 77.4862ZM49.0824 77.4862C49.0824 77.6079 49.0292 77.6687 48.9202 77.6687H48.4414C48.34 77.6687 48.2919 77.6079 48.2919 77.4862V75.7508C48.2919 75.4594 48.3603 75.168 48.4946 74.8767C48.5351 74.7855 48.5934 74.7424 48.6669 74.7424H48.9633C49.0418 74.7424 49.0824 74.7956 49.0824 74.9045V77.4862Z" fill="#4A4A49"/>
<path d="M57.6635 77.4862C57.6635 77.6079 57.6128 77.6687 57.514 77.6687H57.0352C56.9313 77.6687 56.8781 77.6079 56.8781 77.4862V73.9215C56.8781 73.6175 56.7666 73.4199 56.5462 73.3337C56.3688 73.2704 55.9635 73.24 55.325 73.24C55.0767 73.24 54.5649 73.2704 53.7922 73.3337C53.6199 73.3515 53.5312 73.316 53.5312 73.2299V72.865C53.5312 72.7738 53.6149 72.7105 53.7795 72.6725C54.0253 72.6269 54.2913 72.5939 54.5751 72.5711C54.8588 72.5483 55.1679 72.5382 55.4998 72.5382C56.2472 72.5382 56.7717 72.6117 57.0732 72.7612C57.4633 72.9436 57.6609 73.2957 57.6609 73.8151V77.4837L57.6635 77.4862ZM54.4535 77.4862C54.4535 77.6079 54.4003 77.6687 54.2913 77.6687H53.8125C53.7111 77.6687 53.663 77.6079 53.663 77.4862V75.7508C53.663 75.4594 53.7314 75.168 53.8657 74.8767C53.9062 74.7855 53.9645 74.7424 54.038 74.7424H54.3344C54.4129 74.7424 54.4535 74.7956 54.4535 74.9045V77.4862Z" fill="#4A4A49"/>
<path d="M65.2025 77.4863C65.2025 77.6079 65.1519 77.6687 65.0531 77.6687H64.5742C64.4678 77.6687 64.4121 77.6079 64.4121 77.4863V73.9216C64.4121 73.6682 64.3133 73.4909 64.1156 73.392C63.9155 73.2907 63.5481 73.2426 63.0186 73.2426C62.7906 73.2426 62.5803 73.2476 62.3878 73.2603C62.1952 73.273 62.0204 73.2907 61.8608 73.3135V77.4863C61.8608 77.6079 61.8076 77.6687 61.6986 77.6687H61.2198C61.1184 77.6687 61.0703 77.618 61.0703 77.5192V72.9259C61.0703 72.822 61.1235 72.7587 61.2325 72.7333C61.767 72.6117 62.4156 72.5509 63.1808 72.5509C63.9459 72.5509 64.4577 72.6548 64.7541 72.8625C65.0531 73.0678 65.2 73.4199 65.2 73.9216V77.4863H65.2025Z" fill="#4A4A49"/>
<path d="M67.3686 77.4863C67.3686 77.6079 67.3154 77.6687 67.2064 77.6687H66.7276C66.6263 77.6687 66.5781 77.6079 66.5781 77.4863V72.7536C66.5781 72.6472 66.6313 72.5914 66.7403 72.5914H67.2191C67.3205 72.5914 67.3686 72.6497 67.3686 72.7637V77.4863Z" fill="#4A4A49"/>
<path d="M70.1667 77.5293C70.1667 77.6231 70.1084 77.6687 69.9944 77.6687H68.4717C68.3704 77.6687 68.3223 77.618 68.3223 77.5192V77.129C68.3223 77.0226 68.3729 76.9669 68.4717 76.9669H69.3864V73.3236H68.9303C68.8087 73.3236 68.7479 73.2831 68.7479 73.1995V72.8346C68.7479 72.7384 68.8163 72.6801 68.9506 72.6623C69.5257 72.599 70.2275 72.5686 71.061 72.5686C71.8946 72.5686 72.4444 72.6598 72.7383 72.8448C73.0651 73.055 73.2272 73.4781 73.2272 74.1115V77.4837C73.2272 77.6053 73.174 77.6661 73.0701 77.6661H72.5964C72.4925 77.6661 72.4393 77.6053 72.4393 77.4837V74.0482C72.4393 73.7366 72.3557 73.5314 72.191 73.43C72.0213 73.3287 71.664 73.2805 71.1218 73.2805C70.9116 73.2805 70.7266 73.2805 70.5695 73.2805C70.4124 73.2805 70.2782 73.2856 70.1667 73.2881V77.5217V77.5293Z" fill="#4A4A49"/>
<path d="M75.3342 75.3049C75.3342 75.4265 75.281 75.4873 75.1772 75.4873H74.6983C74.597 75.4873 74.5488 75.4265 74.5488 75.3049V72.7536C74.5488 72.6472 74.5995 72.5914 74.6983 72.5914H75.1873C75.2836 72.5914 75.3317 72.6497 75.3317 72.7637V75.3049H75.3342Z" fill="#4A4A49"/>
<path d="M80.6259 75.8698C80.6259 76.4829 80.484 76.9339 80.2002 77.2202C79.8886 77.547 79.3717 77.7092 78.6472 77.7092C77.9859 77.7092 77.3626 77.6509 76.7774 77.5369C76.671 77.5166 76.6152 77.4634 76.6152 77.3798V77.0682C76.6152 76.9719 76.676 76.9263 76.7977 76.9339C77.1625 76.9592 77.502 76.977 77.8161 76.9896C78.1303 77.0023 78.4267 77.0074 78.7004 77.0074C79.1412 77.0074 79.4452 76.9339 79.615 76.7844C79.7492 76.6679 79.8177 76.4703 79.8177 76.1966V74.1546C79.8177 73.8151 79.7492 73.5769 79.6099 73.4427C79.468 73.3084 79.1969 73.24 78.7992 73.24C78.4014 73.24 78.1075 73.24 77.8744 73.245C77.6413 73.2501 77.4842 73.2526 77.4006 73.2602V74.7728C77.4006 74.793 77.4209 74.8032 77.4589 74.8032H78.5559C78.6725 74.8032 78.7333 74.8538 78.7333 74.9527V75.3124C78.7333 75.4138 78.6776 75.4619 78.5661 75.4619H76.8838C76.7267 75.4619 76.6507 75.3732 76.6507 75.1959V72.8954C76.6507 72.8219 76.7318 72.7662 76.8939 72.7282C77.3956 72.6066 77.9479 72.5458 78.5458 72.5458C79.3844 72.5458 79.9469 72.7029 80.2357 73.0145C80.4992 73.2982 80.6309 73.7188 80.6309 74.2711V75.8673L80.6259 75.8698Z" fill="#4A4A49"/>
<path d="M83.8359 77.4026C83.7675 77.58 83.6991 77.6687 83.6333 77.6687H83.0784C82.972 77.6687 82.9391 77.6053 82.9847 77.4761L84.5377 73.2932H81.7382C81.6419 73.2932 81.5938 73.2324 81.5938 73.1108V71.1473C81.5938 71.0738 81.6064 71.0282 81.6292 71.0079C81.652 70.9877 81.6926 70.9775 81.7483 70.9775H82.217C82.3234 70.9775 82.3792 71.0358 82.3792 71.1498V72.5939H85.3358C85.4296 72.5939 85.4752 72.6624 85.4752 72.7966C85.4752 72.865 85.4676 72.9258 85.4549 72.979L83.8385 77.4052L83.8359 77.4026Z" fill="#4A4A49"/>
<path d="M90.0397 77.5293C90.0397 77.6231 89.9815 77.6687 89.8675 77.6687H88.3448C88.2435 77.6687 88.1953 77.618 88.1953 77.5192V77.129C88.1953 77.0226 88.246 76.9669 88.3448 76.9669H89.2594V73.3236H88.8034C88.6818 73.3236 88.621 73.2831 88.621 73.1995V72.8346C88.621 72.7384 88.6894 72.6801 88.8236 72.6623C89.3988 72.599 90.1006 72.5686 90.9341 72.5686C91.7676 72.5686 92.3174 72.6598 92.6113 72.8448C92.9381 73.055 93.1003 73.4781 93.1003 74.1115V77.4837C93.1003 77.6053 93.0471 77.6661 92.9432 77.6661H92.4694C92.3656 77.6661 92.3123 77.6053 92.3123 77.4837V74.0482C92.3123 73.7366 92.2287 73.5314 92.0641 73.43C91.8943 73.3287 91.5371 73.2805 90.9949 73.2805C90.7846 73.2805 90.5997 73.2805 90.4426 73.2805C90.2855 73.2805 90.1512 73.2856 90.0397 73.2881V77.5217V77.5293Z" fill="#4A4A49"/>
<path d="M95.2709 77.4863C95.2709 77.6079 95.2177 77.6687 95.1088 77.6687H94.6299C94.5286 77.6687 94.4805 77.6079 94.4805 77.4863V72.7536C94.4805 72.6472 94.5337 72.5914 94.6426 72.5914H95.1215C95.2228 72.5914 95.2709 72.6497 95.2709 72.7637V77.4863Z" fill="#4A4A49"/>
<path d="M98.5407 77.5293C98.5407 77.623 98.49 77.6686 98.3912 77.6686H96.453C96.3567 77.6686 96.3086 77.618 96.3086 77.5192V77.129C96.3086 77.0226 96.3567 76.9669 96.453 76.9669H97.7629V73.8075C97.7629 73.43 97.5348 73.24 97.0813 73.24C96.9521 73.24 96.8204 73.2501 96.6861 73.2704C96.5366 73.2957 96.4631 73.2628 96.4631 73.1767V72.8549C96.4631 72.7586 96.5062 72.6927 96.5924 72.6623C96.7444 72.6066 96.9648 72.5787 97.2511 72.5787C97.6919 72.5787 98.0162 72.6877 98.224 72.9081C98.4342 73.1285 98.5381 73.4883 98.5381 73.9925V77.5268L98.5407 77.5293Z" fill="#4A4A49"/>
<path d="M104.484 76.0725C104.352 76.6983 104.099 77.1391 103.726 77.3925C103.407 77.6104 102.946 77.7193 102.343 77.7193H102.006C101.469 77.7193 101.063 77.6104 100.79 77.3925C100.491 77.1467 100.296 76.749 100.202 76.1966L99.642 72.7738C99.6217 72.6522 99.6597 72.5914 99.756 72.5914H100.27C100.384 72.5914 100.448 72.6446 100.463 72.7535L100.883 75.6266L101.076 75.5582C101.426 75.4467 101.636 75.1579 101.704 74.6917L101.991 72.7738C102.018 72.6522 102.082 72.5914 102.183 72.5914H102.687C102.784 72.5914 102.822 72.6497 102.801 72.7637L102.464 74.7019C102.368 75.2668 102.074 75.6469 101.58 75.8394L100.962 76.0826L100.992 76.2955C101.079 76.7971 101.398 77.0479 101.948 77.0479H102.426C103.118 77.0479 103.523 76.749 103.642 76.1536L104.344 72.7079C104.362 72.6294 104.413 72.5889 104.494 72.5889H105.033C105.14 72.5889 105.18 72.6497 105.152 72.7713L104.481 76.07L104.484 76.0725Z" fill="#4A4A49"/>
<path d="M110.064 73.0602C110.064 73.1615 110.013 73.2147 109.915 73.2223L109.286 73.2857V77.4888C109.286 77.6104 109.238 77.6712 109.142 77.6712H108.658C108.554 77.6712 108.501 77.6104 108.501 77.4888V73.2857H106.157C106.056 73.2857 106.008 73.2325 106.008 73.1286V72.7435C106.008 72.6421 106.058 72.594 106.157 72.594H109.935C110.021 72.594 110.064 72.6371 110.064 72.7232V73.0602Z" fill="#4A4A49"/>
<path d="M115.347 77.4863C115.347 77.6079 115.296 77.6687 115.198 77.6687H114.719C114.612 77.6687 114.557 77.6079 114.557 77.4863V73.9216C114.557 73.6682 114.458 73.4909 114.26 73.392C114.06 73.2907 113.693 73.2426 113.163 73.2426C112.935 73.2426 112.725 73.2476 112.532 73.2603C112.34 73.273 112.165 73.2907 112.005 73.3135V77.4863C112.005 77.6079 111.952 77.6687 111.843 77.6687H111.364C111.263 77.6687 111.215 77.618 111.215 77.5192V72.9259C111.215 72.822 111.268 72.7587 111.377 72.7333C111.912 72.6117 112.56 72.5509 113.325 72.5509C114.09 72.5509 114.602 72.6548 114.899 72.8625C115.198 73.0678 115.345 73.4199 115.345 73.9216V77.4863H115.347Z" fill="#4A4A49"/>
<path d="M120.169 77.5293C120.169 77.6231 120.11 77.6687 119.996 77.6687H118.474C118.372 77.6687 118.324 77.618 118.324 77.5192V77.129C118.324 77.0226 118.375 76.9669 118.474 76.9669H119.388V73.3236H118.932C118.811 73.3236 118.75 73.2831 118.75 73.1995V72.8346C118.75 72.7384 118.818 72.6801 118.953 72.6623C119.528 72.599 120.229 72.5686 121.063 72.5686C121.897 72.5686 122.446 72.6598 122.74 72.8448C123.067 73.055 123.229 73.4781 123.229 74.1115V77.4837C123.229 77.6053 123.176 77.6661 123.072 77.6661H122.598C122.494 77.6661 122.441 77.6053 122.441 77.4837V74.0482C122.441 73.7366 122.358 73.5314 122.193 73.43C122.023 73.3287 121.666 73.2805 121.124 73.2805C120.914 73.2805 120.729 73.2805 120.571 73.2805C120.414 73.2805 120.28 73.2856 120.169 73.2881V77.5217V77.5293Z" fill="#4A4A49"/>
<path d="M126.514 77.4026C126.445 77.58 126.377 77.6687 126.311 77.6687H125.756C125.65 77.6687 125.617 77.6053 125.662 77.4761L127.215 73.2932H124.416C124.32 73.2932 124.271 73.2324 124.271 73.1108V71.1473C124.271 71.0738 124.284 71.0282 124.307 71.0079C124.33 70.9877 124.37 70.9775 124.426 70.9775H124.895C125.001 70.9775 125.057 71.0358 125.057 71.1498V72.5939H128.014C128.107 72.5939 128.153 72.6624 128.153 72.7966C128.153 72.865 128.145 72.9258 128.133 72.979L126.516 77.4052L126.514 77.4026Z" fill="#4A4A49"/>
<path d="M129.998 75.3049C129.998 75.4265 129.945 75.4873 129.841 75.4873H129.362C129.261 75.4873 129.213 75.4265 129.213 75.3049V72.7536C129.213 72.6472 129.264 72.5914 129.362 72.5914H129.851C129.948 72.5914 129.996 72.6497 129.996 72.7637V75.3049H129.998Z" fill="#4A4A49"/>
<path d="M135.324 77.4862C135.324 77.6079 135.273 77.6687 135.174 77.6687H134.695C134.591 77.6687 134.538 77.6079 134.538 77.4862V73.9215C134.538 73.6175 134.427 73.4199 134.206 73.3337C134.029 73.2704 133.624 73.24 132.985 73.24C132.737 73.24 132.225 73.2704 131.452 73.3337C131.28 73.3515 131.191 73.316 131.191 73.2299V72.865C131.191 72.7738 131.275 72.7105 131.44 72.6725C131.685 72.6269 131.951 72.5939 132.235 72.5711C132.519 72.5483 132.828 72.5382 133.16 72.5382C133.907 72.5382 134.432 72.6117 134.733 72.7612C135.123 72.9436 135.321 73.2957 135.321 73.8151V77.4837L135.324 77.4862ZM132.114 77.4862C132.114 77.6079 132.06 77.6687 131.951 77.6687H131.473C131.371 77.6687 131.323 77.6079 131.323 77.4862V75.7508C131.323 75.4594 131.392 75.168 131.526 74.8767C131.566 74.7855 131.625 74.7424 131.698 74.7424H131.995C132.073 74.7424 132.114 74.7956 132.114 74.9045V77.4862Z" fill="#4A4A49"/>
<path d="M139.57 77.4027C139.479 77.58 139.387 77.6687 139.294 77.6687H138.794C138.68 77.6687 138.655 77.6003 138.716 77.466L140.087 74.5727C140.173 74.4004 140.216 74.2231 140.216 74.0432C140.216 73.8202 140.142 73.6404 139.998 73.5035C139.853 73.3667 139.648 73.2958 139.385 73.2958H136.661C136.56 73.2958 136.512 73.2426 136.512 73.1387V72.7435C136.512 72.6421 136.562 72.594 136.661 72.594H139.484C139.899 72.594 140.249 72.7257 140.532 72.9892C140.816 73.2527 140.958 73.5998 140.958 74.0331C140.958 74.3092 140.885 74.6082 140.735 74.9274L139.567 77.4052L139.57 77.4027ZM137.518 79.6119C137.518 79.7336 137.464 79.7944 137.355 79.7944H136.899C136.798 79.7944 136.75 79.7336 136.75 79.6119V75.7989C136.75 75.462 136.813 75.1276 136.942 74.7957C136.983 74.6816 137.041 74.6234 137.115 74.6234H137.381C137.474 74.6234 137.52 74.674 137.52 74.7729V79.6094L137.518 79.6119Z" fill="#4A4A49"/>
<path d="M45.4181 63.9622C45.5119 64.2409 45.5701 64.4613 45.5929 64.6235C45.6157 64.7856 45.5853 64.9072 45.4992 64.9883C45.413 65.0694 45.261 65.12 45.0431 65.1403C44.8253 65.1606 44.5263 65.1682 44.1437 65.1682C43.7612 65.1682 43.4369 65.1631 43.2139 65.1504C42.991 65.1378 42.8237 65.115 42.7047 65.082C42.5881 65.0466 42.5071 64.9984 42.4589 64.9376C42.4133 64.8768 42.3728 64.7958 42.3424 64.6944L41.3264 61.6769H35.6487L34.691 64.6133C34.6606 64.7223 34.6201 64.8135 34.5694 64.887C34.5188 64.9604 34.4377 65.0187 34.3237 65.0618C34.2097 65.1048 34.05 65.1327 33.8448 65.1479C33.6396 65.1631 33.3685 65.1707 33.0316 65.1707C32.6743 65.1707 32.3931 65.1606 32.1904 65.1352C31.9877 65.1124 31.8484 65.0567 31.7698 64.968C31.6913 64.8794 31.6634 64.7527 31.6888 64.5905C31.7141 64.4284 31.7698 64.2105 31.8636 63.9394L36.5253 50.6154C36.5709 50.4837 36.6267 50.3773 36.69 50.2962C36.7534 50.2151 36.8522 50.1543 36.989 50.1113C37.1258 50.0682 37.3133 50.0403 37.5565 50.0302C37.7972 50.0175 38.1164 50.0125 38.5142 50.0125C38.9727 50.0125 39.3401 50.0175 39.6112 50.0302C39.8848 50.0429 40.0951 50.0682 40.2471 50.1113C40.3991 50.1543 40.5081 50.2177 40.5739 50.3013C40.6398 50.3874 40.6956 50.5014 40.7437 50.6509L45.4181 63.9622ZM38.4762 52.9488H38.4635L36.3252 59.3309H40.6145L38.4762 52.9488Z" fill="#5D4696"/>
<path d="M57.3135 64.7071C57.3135 64.7856 57.2907 64.8515 57.2426 64.9098C57.197 64.968 57.1184 65.0162 57.0095 65.0542C56.9005 65.0922 56.7511 65.1226 56.5585 65.1403C56.3685 65.1606 56.1329 65.1682 55.8516 65.1682C55.5704 65.1682 55.3247 65.158 55.1321 65.1403C54.9421 65.12 54.7901 65.0922 54.6811 65.0542C54.5722 65.0162 54.4937 64.968 54.4481 64.9098C54.4025 64.8515 54.3771 64.7831 54.3771 64.7071V58.7988C54.3771 58.2972 54.3391 57.9019 54.2656 57.6156C54.1922 57.3293 54.0858 57.0836 53.9439 56.8784C53.8045 56.6732 53.6221 56.5135 53.4017 56.4021C53.1787 56.2906 52.9203 56.2349 52.6239 56.2349C52.2489 56.2349 51.8714 56.3691 51.4914 56.6402C51.1088 56.9113 50.7111 57.3065 50.3006 57.8234V64.7045C50.3006 64.7831 50.2778 64.8489 50.2297 64.9072C50.1841 64.9655 50.103 65.0136 49.989 65.0516C49.875 65.0896 49.7255 65.12 49.538 65.1378C49.3505 65.1555 49.1124 65.1656 48.8261 65.1656C48.5398 65.1656 48.2991 65.1555 48.1142 65.1378C47.9267 65.1175 47.7772 65.0896 47.6632 65.0516C47.5492 65.0136 47.4706 64.9655 47.4225 64.9072C47.3769 64.8489 47.3516 64.7805 47.3516 64.7045V54.3524C47.3516 54.2764 47.3718 54.208 47.4098 54.1497C47.4478 54.0915 47.5188 54.0433 47.6201 54.0053C47.7215 53.9673 47.8507 53.9369 48.0103 53.9192C48.1699 53.8989 48.3701 53.8913 48.6133 53.8913C48.8565 53.8913 49.0693 53.9014 49.2315 53.9192C49.3936 53.9369 49.5228 53.9673 49.6115 54.0053C49.7002 54.0433 49.766 54.0915 49.804 54.1497C49.8421 54.208 49.8623 54.2764 49.8623 54.3524V55.5483C50.4374 54.9301 51.0252 54.4639 51.6206 54.1548C52.216 53.8457 52.8367 53.6912 53.4853 53.6912C54.1947 53.6912 54.7926 53.8077 55.2791 54.0383C55.7655 54.2713 56.1582 54.5855 56.4597 54.9833C56.7587 55.381 56.9765 55.8472 57.1083 56.3818C57.24 56.9164 57.3059 57.5574 57.3059 58.3073V64.702L57.3135 64.7071Z" fill="#5D4696"/>
<path d="M69.0803 64.74C69.0803 64.849 69.0423 64.9326 68.9637 64.9959C68.8852 65.0567 68.7636 65.1023 68.5964 65.1302C68.4292 65.1581 68.1809 65.1707 67.854 65.1707C67.5044 65.1707 67.2485 65.1581 67.0889 65.1302C66.9293 65.1023 66.8153 65.0593 66.7494 64.9959C66.6835 64.9351 66.6506 64.849 66.6506 64.74V63.9166C66.2224 64.3727 65.7334 64.7299 65.1837 64.9833C64.6339 65.2391 64.0258 65.3658 63.3544 65.3658C62.8021 65.3658 62.2929 65.2949 61.8292 65.1505C61.3656 65.0086 60.9653 64.7958 60.6258 64.512C60.2863 64.2308 60.0228 63.8786 59.8379 63.4606C59.6504 63.0425 59.5566 62.5561 59.5566 61.9987C59.5566 61.3957 59.6757 60.8713 59.9139 60.4254C60.152 59.9795 60.5067 59.6121 60.978 59.3233C61.4492 59.0319 62.0345 58.8191 62.7363 58.6798C63.438 58.5404 64.2513 58.4695 65.1786 58.4695H66.1946V57.8437C66.1946 57.5194 66.1616 57.2331 66.0957 56.9899C66.0299 56.7467 65.9209 56.544 65.7689 56.3793C65.6169 56.2171 65.4142 56.0981 65.1609 56.0195C64.9075 55.9435 64.5933 55.903 64.2209 55.903C63.7294 55.903 63.2911 55.9562 62.906 56.0651C62.5209 56.1741 62.1789 56.2932 61.8824 56.4249C61.586 56.5566 61.3403 56.6757 61.1401 56.7847C60.9425 56.8936 60.7803 56.9468 60.6562 56.9468C60.5701 56.9468 60.4941 56.9189 60.4282 56.8657C60.3623 56.8125 60.3066 56.734 60.2635 56.6327C60.2204 56.5313 60.1875 56.4097 60.1647 56.2602C60.1419 56.1133 60.1292 55.9511 60.1292 55.7738C60.1292 55.5331 60.1495 55.3456 60.1875 55.2063C60.2255 55.0669 60.3015 54.9402 60.4104 54.8288C60.5194 54.7173 60.7094 54.5931 60.983 54.4563C61.2567 54.3221 61.5759 54.1954 61.9407 54.0788C62.3055 53.9623 62.7059 53.8685 63.1391 53.7951C63.5723 53.7216 64.0182 53.6836 64.4768 53.6836C65.2951 53.6836 65.9944 53.7621 66.5746 53.9217C67.1548 54.0814 67.6311 54.3246 68.0061 54.6539C68.381 54.9833 68.6521 55.4064 68.8244 55.9258C68.9967 56.4452 69.0803 57.0583 69.0803 57.7702V64.7324V64.74ZM66.1946 60.3088H65.0722C64.5959 60.3088 64.193 60.3443 63.8561 60.4127C63.5217 60.4811 63.248 60.5875 63.0377 60.7269C62.8275 60.8662 62.6729 61.0334 62.5766 61.2311C62.4804 61.4287 62.4297 61.6542 62.4297 61.9101C62.4297 62.3433 62.569 62.6828 62.8452 62.9311C63.1214 63.1794 63.5065 63.3035 63.9954 63.3035C64.4084 63.3035 64.7884 63.1996 65.1355 62.9893C65.4826 62.7816 65.8348 62.475 66.192 62.0722V60.3088H66.1946Z" fill="#5D4696"/>
<path d="M79.3513 61.7808C79.3513 62.3686 79.2398 62.888 79.0194 63.3364C78.7964 63.7849 78.4848 64.1598 78.0794 64.4613C77.6741 64.7628 77.1952 64.9883 76.6429 65.1403C76.0906 65.2923 75.4901 65.3658 74.8441 65.3658C74.4539 65.3658 74.0815 65.3379 73.7293 65.2796C73.3746 65.2214 73.0579 65.1479 72.7767 65.0592C72.4955 64.9706 72.2624 64.8793 72.0749 64.7856C71.8874 64.6919 71.7506 64.6057 71.667 64.5246C71.5809 64.4436 71.515 64.3169 71.4694 64.1421C71.4238 63.9673 71.3984 63.7114 71.3984 63.3693C71.3984 63.1439 71.406 62.964 71.4212 62.8297C71.4364 62.6954 71.4592 62.5865 71.4922 62.5054C71.5226 62.4243 71.5631 62.3711 71.6087 62.3433C71.6543 62.3154 71.7151 62.3027 71.7835 62.3027C71.8697 62.3027 71.9964 62.3509 72.1636 62.4471C72.3308 62.5434 72.5385 62.6498 72.7894 62.7664C73.0376 62.8829 73.329 62.9918 73.6609 63.0907C73.9928 63.192 74.3678 63.2427 74.7883 63.2427C75.0518 63.2427 75.29 63.2148 75.4952 63.1616C75.7004 63.1084 75.8803 63.0299 76.0323 62.9285C76.1843 62.8272 76.2983 62.7005 76.3769 62.5459C76.4554 62.3914 76.4934 62.214 76.4934 62.0114C76.4934 61.7783 76.4225 61.5807 76.2781 61.4134C76.1337 61.2462 75.9436 61.1018 75.7055 60.9777C75.4673 60.8535 75.1988 60.737 74.8998 60.6306C74.6009 60.5216 74.2918 60.4026 73.9776 60.2708C73.6609 60.1391 73.3543 59.9896 73.0554 59.8173C72.7564 59.6476 72.4879 59.4373 72.2497 59.1915C72.0116 58.9432 71.8215 58.6468 71.6771 58.2972C71.5327 57.9501 71.4618 57.532 71.4618 57.0431C71.4618 56.5541 71.558 56.093 71.7531 55.68C71.9482 55.267 72.2294 54.9123 72.5943 54.6184C72.9591 54.3246 73.4075 54.0965 73.932 53.9344C74.459 53.7722 75.0468 53.6912 75.7029 53.6912C76.0298 53.6912 76.3465 53.714 76.6556 53.7621C76.9621 53.8077 77.2408 53.866 77.4916 53.9369C77.7399 54.0079 77.9502 54.0813 78.1225 54.1624C78.2948 54.2435 78.4164 54.3144 78.4899 54.3702C78.5633 54.4284 78.6165 54.4867 78.6469 54.545C78.6773 54.6032 78.7001 54.6716 78.7179 54.7527C78.7331 54.8338 78.7483 54.9351 78.7584 55.0542C78.7711 55.1733 78.7762 55.3228 78.7762 55.5001C78.7762 55.7104 78.7711 55.8802 78.7584 56.0119C78.7457 56.1436 78.728 56.2475 78.7001 56.3261C78.6723 56.4046 78.6368 56.4553 78.5887 56.4831C78.5431 56.511 78.4873 56.5237 78.424 56.5237C78.3531 56.5237 78.2441 56.4831 78.0972 56.4021C77.9502 56.321 77.7653 56.2349 77.5423 56.1411C77.3194 56.0474 77.0635 55.9612 76.7721 55.8802C76.4807 55.7991 76.1463 55.7585 75.7739 55.7585C75.5079 55.7585 75.2798 55.7864 75.0848 55.8396C74.8897 55.8928 74.7301 55.9714 74.6059 56.0727C74.4818 56.174 74.388 56.2906 74.3247 56.4274C74.2614 56.5642 74.231 56.7086 74.231 56.8632C74.231 57.1039 74.3044 57.304 74.4539 57.4662C74.6009 57.6283 74.7959 57.7727 75.0392 57.8943C75.2798 58.0185 75.556 58.135 75.8626 58.2414C76.1691 58.3504 76.4808 58.4669 76.7974 58.5961C77.1141 58.7228 77.4232 58.8723 77.7323 59.042C78.0389 59.2118 78.315 59.4221 78.5557 59.6678C78.7964 59.9161 78.9915 60.2125 79.141 60.5546C79.2879 60.8991 79.3639 61.307 79.3639 61.7783L79.3513 61.7808Z" fill="#5D4696"/>
<path d="M91.5147 64.707C91.5147 64.7856 91.4919 64.8514 91.4437 64.9097C91.3981 64.968 91.3196 65.0161 91.2106 65.0541C91.1017 65.0921 90.9522 65.1225 90.7597 65.1403C90.5697 65.1605 90.334 65.1681 90.0528 65.1681C89.7716 65.1681 89.5258 65.158 89.3333 65.1403C89.1433 65.12 88.9913 65.0921 88.8823 65.0541C88.7734 65.0161 88.6948 64.968 88.6492 64.9097C88.6036 64.8514 88.5783 64.783 88.5783 64.707V58.7988C88.5783 58.2971 88.5403 57.9019 88.4668 57.6156C88.3933 57.3293 88.2869 57.0836 88.145 56.8783C88.0057 56.6731 87.8233 56.5135 87.6029 56.402C87.3799 56.2906 87.1215 56.2348 86.8251 56.2348C86.4501 56.2348 86.0726 56.3691 85.6926 56.6402C85.31 56.9113 84.9122 57.3065 84.5018 57.8234V64.7045C84.5018 64.783 84.479 64.8489 84.4309 64.9072C84.3852 64.9655 84.3042 65.0136 84.1902 65.0516C84.0761 65.0896 83.9267 65.12 83.7392 65.1377C83.5517 65.1555 83.3135 65.1656 83.0273 65.1656C82.741 65.1656 82.5003 65.1555 82.3153 65.1377C82.1278 65.1175 81.9784 65.0896 81.8644 65.0516C81.7503 65.0136 81.6718 64.9655 81.6237 64.9072C81.5781 64.8489 81.5527 64.7805 81.5527 64.7045V49.4423C81.5527 49.3663 81.5755 49.2954 81.6237 49.2346C81.6693 49.1738 81.7503 49.1206 81.8644 49.0775C81.9784 49.0344 82.1278 49.0015 82.3153 48.9787C82.5028 48.9559 82.741 48.9432 83.0273 48.9432C83.3135 48.9432 83.5542 48.9559 83.7392 48.9787C83.9241 49.0015 84.0761 49.0344 84.1902 49.0775C84.3042 49.1206 84.3827 49.1713 84.4309 49.2346C84.4765 49.2979 84.5018 49.3663 84.5018 49.4423V55.1631C85.0085 54.6691 85.5254 54.2992 86.0498 54.056C86.5768 53.8127 87.124 53.6911 87.6915 53.6911C88.4009 53.6911 88.9989 53.8077 89.4853 54.0382C89.9717 54.2713 90.3644 54.588 90.6659 54.9908C90.9649 55.3937 91.1828 55.8624 91.3145 56.402C91.4463 56.9391 91.5121 57.5928 91.5121 58.3579V64.707H91.5147Z" fill="#5D4696"/>
<path d="M97.5671 50.8485C97.5671 51.4363 97.4454 51.8417 97.2048 52.0672C96.9641 52.2927 96.5156 52.4041 95.862 52.4041C95.2083 52.4041 94.7548 52.2952 94.5242 52.0798C94.2937 51.8645 94.1797 51.4718 94.1797 50.9068C94.1797 50.3418 94.2988 49.9111 94.5369 49.6831C94.7751 49.4551 95.2235 49.3411 95.8873 49.3411C96.5511 49.3411 96.9843 49.4525 97.22 49.673C97.4556 49.8934 97.5696 50.2861 97.5696 50.8511L97.5671 50.8485ZM97.3441 64.7071C97.3441 64.7856 97.3213 64.8515 97.2732 64.9098C97.2276 64.968 97.1465 65.0162 97.0325 65.0542C96.9185 65.0922 96.769 65.1226 96.5815 65.1403C96.394 65.1581 96.1559 65.1682 95.8696 65.1682C95.5833 65.1682 95.3426 65.1581 95.1576 65.1403C94.9702 65.12 94.8207 65.0922 94.7067 65.0542C94.5927 65.0162 94.5141 64.968 94.466 64.9098C94.4204 64.8515 94.395 64.7831 94.395 64.7071V54.3778C94.395 54.2992 94.4178 54.2334 94.466 54.1751C94.5116 54.1168 94.5927 54.0661 94.7067 54.0231C94.8207 53.98 94.9702 53.9471 95.1576 53.9243C95.3451 53.9015 95.5833 53.8888 95.8696 53.8888C96.1559 53.8888 96.3965 53.8989 96.5815 53.9243C96.7664 53.9496 96.9185 53.98 97.0325 54.0231C97.1465 54.0661 97.225 54.1168 97.2732 54.1751C97.3188 54.2334 97.3441 54.3018 97.3441 54.3778V64.7071Z" fill="#5D4696"/>
<path d="M116.858 64.707C116.858 64.7856 116.835 64.8514 116.787 64.9097C116.741 64.968 116.663 65.0161 116.554 65.0541C116.445 65.0921 116.298 65.1225 116.11 65.1403C115.923 65.1605 115.685 65.1681 115.399 65.1681C115.112 65.1681 114.861 65.158 114.674 65.1403C114.486 65.12 114.337 65.0921 114.223 65.0541C114.109 65.0161 114.033 64.968 113.99 64.9097C113.947 64.8514 113.927 64.783 113.927 64.707V58.5682C113.927 58.2211 113.894 57.9019 113.828 57.6156C113.762 57.3293 113.661 57.0836 113.524 56.8783C113.387 56.6731 113.217 56.5135 113.009 56.402C112.804 56.2906 112.556 56.2348 112.267 56.2348C111.917 56.2348 111.563 56.3691 111.203 56.6402C110.846 56.9113 110.456 57.3065 110.035 57.8234V64.7045C110.035 64.783 110.012 64.8489 109.964 64.9072C109.918 64.9655 109.837 65.0136 109.723 65.0516C109.609 65.0896 109.46 65.12 109.272 65.1377C109.085 65.1555 108.852 65.1656 108.571 65.1656C108.289 65.1656 108.044 65.1555 107.859 65.1377C107.671 65.1175 107.522 65.0896 107.408 65.0516C107.294 65.0136 107.215 64.9655 107.167 64.9072C107.121 64.8489 107.096 64.7805 107.096 64.7045V58.5657C107.096 58.2186 107.063 57.8994 106.997 57.6131C106.931 57.3268 106.833 57.081 106.698 56.8758C106.567 56.6706 106.394 56.511 106.184 56.3995C105.974 56.288 105.728 56.2323 105.447 56.2323C105.09 56.2323 104.73 56.3666 104.373 56.6377C104.015 56.9087 103.628 57.304 103.215 57.8208V64.702C103.215 64.7805 103.192 64.8464 103.144 64.9046C103.098 64.9629 103.017 65.0111 102.903 65.0491C102.789 65.0871 102.64 65.1175 102.452 65.1352C102.265 65.1529 102.026 65.1631 101.74 65.1631C101.454 65.1631 101.213 65.1529 101.028 65.1352C100.841 65.1149 100.691 65.0871 100.577 65.0491C100.463 65.0111 100.385 64.9629 100.337 64.9046C100.291 64.8464 100.266 64.778 100.266 64.702V54.3499C100.266 54.2739 100.286 54.2054 100.324 54.1472C100.362 54.0889 100.433 54.0408 100.534 54.0028C100.636 53.9648 100.765 53.9344 100.924 53.9166C101.084 53.8963 101.284 53.8887 101.527 53.8887C101.771 53.8887 101.983 53.8989 102.146 53.9166C102.308 53.9344 102.437 53.9648 102.526 54.0028C102.614 54.0408 102.68 54.0889 102.718 54.1472C102.756 54.2054 102.776 54.2739 102.776 54.3499V55.5457C103.351 54.9275 103.927 54.4613 104.499 54.1522C105.072 53.8431 105.67 53.6886 106.293 53.6886C106.721 53.6886 107.106 53.7342 107.451 53.8229C107.793 53.9116 108.099 54.0382 108.368 54.2054C108.636 54.3727 108.87 54.5703 109.062 54.8034C109.255 55.0364 109.419 55.2949 109.554 55.5812C109.865 55.2493 110.172 54.963 110.471 54.7223C110.77 54.4816 111.066 54.2865 111.36 54.137C111.651 53.985 111.945 53.8735 112.237 53.8001C112.528 53.7266 112.827 53.6886 113.131 53.6886C113.825 53.6886 114.408 53.8051 114.884 54.0357C115.361 54.2688 115.743 54.5829 116.034 54.9807C116.326 55.3785 116.536 55.8447 116.66 56.3792C116.784 56.9138 116.848 57.4788 116.848 58.0742V64.702L116.858 64.707Z" fill="#5D4696"/>
<path d="M123.201 63.4301C123.201 64.1497 123.075 64.6336 122.821 64.8819C122.568 65.1301 122.115 65.2543 121.461 65.2543C120.807 65.2543 120.354 65.1327 120.105 64.8895C119.857 64.6462 119.73 64.1826 119.73 63.5036C119.73 62.7765 119.857 62.29 120.111 62.0417C120.364 61.7935 120.822 61.6693 121.484 61.6693C122.145 61.6693 122.578 61.7909 122.826 62.0341C123.075 62.2774 123.201 62.7435 123.201 63.4327V63.4301Z" fill="#5D4696"/>
<path d="M129.396 64.6817C129.396 64.7603 129.371 64.8287 129.32 64.892C129.269 64.9528 129.186 65.0035 129.069 65.0415C128.952 65.0795 128.795 65.1124 128.603 65.1352C128.408 65.158 128.159 65.1707 127.855 65.1707C127.551 65.1707 127.313 65.1606 127.113 65.1352C126.913 65.1099 126.756 65.082 126.639 65.0415C126.523 65.0035 126.439 64.9528 126.389 64.892C126.338 64.8312 126.312 64.7603 126.312 64.6817V50.4989C126.312 50.4229 126.338 50.3519 126.389 50.2911C126.439 50.2303 126.525 50.1796 126.644 50.1391C126.766 50.1011 126.923 50.0682 127.118 50.0454C127.313 50.0226 127.559 50.0099 127.855 50.0099C128.152 50.0099 128.408 50.0226 128.603 50.0454C128.798 50.0682 128.952 50.0986 129.069 50.1391C129.186 50.1771 129.269 50.2278 129.32 50.2911C129.371 50.3519 129.396 50.4229 129.396 50.4989V64.6817Z" fill="#5D4696"/>
<path d="M141 63.8228C141 64.0559 140.99 64.251 140.97 64.4081C140.949 64.5677 140.922 64.6994 140.881 64.8033C140.843 64.9072 140.792 64.9832 140.734 65.0288C140.676 65.0744 140.607 65.0972 140.529 65.0972H133.6C133.344 65.0972 133.126 65.0212 132.951 64.8717C132.776 64.7222 132.688 64.4765 132.688 64.1345V50.4989C132.688 50.4229 132.713 50.3519 132.764 50.2911C132.814 50.2303 132.898 50.1796 133.014 50.1391C133.131 50.1011 133.288 50.0682 133.488 50.0454C133.686 50.0226 133.934 50.0099 134.23 50.0099C134.527 50.0099 134.783 50.0226 134.978 50.0454C135.173 50.0682 135.327 50.0986 135.444 50.1391C135.561 50.1771 135.644 50.2278 135.695 50.2911C135.746 50.3519 135.771 50.4229 135.771 50.4989V62.5789H140.526C140.605 62.5789 140.673 62.5991 140.732 62.6422C140.79 62.6853 140.838 62.7537 140.878 62.8525C140.916 62.9488 140.947 63.078 140.967 63.235C140.987 63.3947 140.998 63.5897 140.998 63.8203L141 63.8228Z" fill="#5D4696"/>
<path d="M67.1774 5.04939C66.9139 4.83404 66.9392 4.8011 67.2306 4.97592L77.3927 11.0717C77.684 11.2465 77.646 11.3529 77.3091 11.3047L74.9123 10.9779C74.5753 10.9323 74.0838 10.717 73.8229 10.5016L67.1774 5.04939ZM59.3411 4.19558C59.0016 4.20065 58.9838 4.30199 59.3031 4.41853L68.0312 7.66909C68.3504 7.78816 68.396 7.70709 68.1325 7.49174L64.5273 4.52241C64.2638 4.30706 63.7723 4.13224 63.4328 4.13731L59.3411 4.19305V4.19558ZM63.5797 3.18469C63.9192 3.18469 64.4133 3.35697 64.6742 3.57233L72.5713 10.0608C72.8348 10.2761 72.7867 10.3572 72.47 10.2381L54.0991 3.45578C53.7799 3.33924 53.7977 3.24043 54.1371 3.2379L63.5797 3.18216V3.18469ZM48.6292 0.298972C48.2948 0.238167 48.2593 0.334442 48.5481 0.511791L51.5504 2.36382C51.8392 2.54117 52.3535 2.68812 52.6956 2.68812L60.9448 2.67545C61.2843 2.67545 61.2894 2.62478 60.9549 2.56397L48.6292 0.298972ZM61.9633 16.007C62.1457 16.2933 62.5308 16.3871 62.8222 16.2097L70.5977 11.5252C70.889 11.3503 70.8662 11.1122 70.547 10.9956L55.865 5.65238C55.5458 5.53583 55.4318 5.67518 55.6142 5.964L61.9633 16.0045V16.007ZM53.0629 4.02583C52.883 3.73701 52.9971 3.59766 53.3163 3.71421L73.0172 10.95C73.3364 11.0666 73.3618 11.3098 73.073 11.4897L63.6659 17.3599C63.377 17.5398 62.9058 17.8337 62.617 18.0136L62.5511 18.0541C62.2623 18.234 61.8797 18.1453 61.6998 17.8565L53.0655 4.02583H53.0629ZM43.9523 1.84191C43.6229 1.92298 43.6305 1.97872 43.97 1.96605L47.1876 1.84191C47.5271 1.82924 47.5676 1.67216 47.2788 1.49481L47.2611 1.48468C46.9723 1.30733 46.4655 1.22625 46.1336 1.30733L43.9523 1.84444V1.84191ZM46.1108 0.141892C46.4427 0.0633515 46.9495 0.146959 47.2383 0.324308L50.6104 2.39929C50.8993 2.57664 50.8587 2.73625 50.5192 2.75145L31.7101 3.63313C31.3706 3.64833 31.363 3.59766 31.6949 3.52166L46.1108 0.141892ZM31.9964 5.51556C31.6569 5.53583 31.5809 5.74612 31.8241 5.98174L36.0881 10.0836C36.3339 10.3192 36.7696 10.3673 37.061 10.19L45.5661 4.99872C45.8575 4.82137 45.817 4.69216 45.4775 4.71243L31.9964 5.51303V5.51556ZM50.1949 3.35191C50.5344 3.33417 50.5775 3.46845 50.2887 3.65087L36.914 12.0952C36.6277 12.2776 36.192 12.232 35.9462 11.9964L28.6166 4.90751C28.3734 4.67189 28.4494 4.46414 28.7889 4.4464L50.1924 3.35191H50.1949ZM41.4744 11.9964C41.1907 12.1839 41.2312 12.4043 41.5606 12.4828L58.0211 16.4099C58.3505 16.4884 58.4771 16.3161 58.2998 16.0273L52.0014 5.73345C51.824 5.44462 51.4465 5.36102 51.1653 5.5485L41.477 11.9989L41.4744 11.9964ZM51.4414 3.77248C51.7277 3.58753 52.1078 3.67367 52.2877 3.96249L60.9119 17.8666C61.0918 18.1555 60.9676 18.3278 60.6357 18.2517L37.9756 12.9642C37.6437 12.8882 37.6082 12.6729 37.8945 12.4904L51.444 3.77248H51.4414ZM41.5555 33.2073C41.6036 33.5443 41.8545 33.638 42.1129 33.4151L57.6791 20.0455C57.9375 19.8251 57.8767 19.5819 57.5448 19.5084L39.5869 15.4699C39.255 15.3964 39.0245 15.6093 39.0726 15.9462L41.5555 33.2099V33.2073ZM36.9976 14.0866C36.9546 13.7496 37.1902 13.5368 37.5196 13.6128L60.5445 18.9181C60.8764 18.9941 60.9398 19.2424 60.6839 19.4679L40.532 37.3877C40.2786 37.6132 40.0354 37.522 39.9898 37.185L36.9951 14.0841L36.9976 14.0866ZM17.6691 14.3045C17.8718 14.0334 17.8237 13.9852 17.5627 14.2031L11.8977 18.8623C11.6342 19.0777 11.5025 19.5211 11.6063 19.8454L11.9889 21.0665C12.0903 21.3908 12.3411 21.4339 12.5438 21.1603L17.6691 14.307V14.3045ZM24.4743 6.93942C24.7428 6.72914 24.7986 6.78488 24.5984 7.0585L11.8901 24.5502C11.6899 24.8263 11.4391 24.7858 11.3327 24.464L9.6175 19.2956C9.51109 18.9738 9.64283 18.538 9.90886 18.3278L24.4768 6.93689L24.4743 6.93942ZM19.2425 19.5185C19.0474 19.7972 19.1285 19.8884 19.4274 19.7263L32.2852 12.6957C32.5842 12.5335 32.6298 12.2016 32.3891 11.9635L28.2543 7.83123C28.0137 7.59055 27.6564 7.62095 27.4613 7.89964L19.2425 19.5211V19.5185ZM27.0382 5.36102C27.2358 5.08486 27.5956 5.05192 27.8388 5.28754L35.209 12.4347C35.4522 12.6703 35.4066 12.9972 35.1076 13.1568L13.7396 24.573C13.4406 24.7326 13.3545 24.6363 13.5521 24.3602L27.0382 5.36102ZM16.7444 25.8904C16.4454 26.0526 16.4556 26.2983 16.7647 26.4351L36.6835 35.3203C36.9951 35.4597 37.2054 35.2975 37.1573 34.9606L34.4565 16.9799C34.4058 16.6429 34.1195 16.5011 33.8206 16.6632L16.7444 25.8904ZM35.3939 13.9726C35.6929 13.8104 35.969 13.9523 36.0121 14.2893L38.8269 37.4029C38.8674 37.7399 38.647 37.9045 38.3354 37.7677L13.0986 26.6682C12.787 26.5314 12.7768 26.2857 13.0758 26.1235L35.3939 13.97V13.9726ZM15.0874 31.2818C14.7758 31.1475 14.5478 31.3148 14.5807 31.6517L17.4614 60.2834C17.4943 60.6204 17.7021 60.6863 17.9225 60.4279L34.8745 40.4482C35.0949 40.1898 35.0189 39.868 34.7073 39.7338L15.0849 31.2844L15.0874 31.2818ZM12.1536 28.1352C12.1181 27.7982 12.3461 27.631 12.6578 27.7678L38.1403 38.9104C38.4519 39.0472 38.5279 39.3715 38.3126 39.6324L16.448 65.9713C16.2301 66.2322 16.0249 66.1689 15.9919 65.8319L12.1561 28.1352H12.1536ZM8.8321 21.4238C8.72822 21.0995 8.55594 21.0995 8.44953 21.4238L2.30819 40.2506C2.20178 40.5749 2.25752 40.5977 2.42727 40.3038L10.1723 27.0609C10.3446 26.767 10.3978 26.2629 10.294 25.9386L8.8321 21.4238ZM2.38673 46.8252C2.21445 47.1191 2.24992 47.5751 2.46274 47.8386L11.5962 59.118C11.809 59.3815 11.961 59.3207 11.9306 58.9837L9.83285 34.8035C9.80245 34.464 9.63777 34.4285 9.46802 34.7224L2.38673 46.8252ZM14.036 64.6766C14.0664 65.0161 13.9195 65.0744 13.7092 64.8084L0.385221 48.0337C0.174935 47.7677 0.139466 47.3091 0.30668 47.0127L10.413 29.2803C10.5803 28.9839 10.7449 29.0194 10.7753 29.3589L14.036 64.6741V64.6766Z" fill="url(#paint0_linear_1016_1585)"/>
<path d="M79.9438 29.2145L74.8741 41.0184C74.7627 41.2793 74.3928 41.2869 74.2712 41.0285L66.0067 23.2936C65.8775 23.0174 66.1612 22.7286 66.4399 22.8528L79.7766 28.7838C79.9413 28.8573 80.0173 29.0498 79.9463 29.2145H79.9438ZM63.0526 19.7719C62.86 19.7719 62.7916 19.9214 62.9056 20.1748L74.1445 45.3203C74.2636 45.5864 74.4156 45.7232 74.5574 45.7232C74.674 45.7232 74.7829 45.632 74.864 45.4495L82.3051 28.4874C82.4241 28.2163 82.2367 27.8743 81.887 27.7248L63.3262 19.8378C63.2198 19.7922 63.1311 19.7719 63.0576 19.7719H63.0526ZM69.0368 43.1972C63.0678 41.7379 52.4218 39.0523 46.5566 37.6183C46.1614 37.522 46.0347 37.0255 46.3336 36.7518C50.3595 33.0529 57.0582 26.7722 60.552 23.5596C60.8104 23.3215 61.2208 23.4127 61.3627 23.7319L69.6221 42.4929C69.7918 42.8805 69.4498 43.296 69.0394 43.1972H69.0368ZM61.6008 20.3952C61.5375 20.3952 61.4767 20.4155 61.4311 20.456C59.4042 22.3131 45.2417 35.2672 42.2622 37.9908C42.0671 38.1706 42.1482 38.4747 42.4117 38.538C46.5059 39.5337 68.8595 44.9656 72.5179 45.8524C72.5433 45.86 72.5686 45.8625 72.5939 45.8625C72.8118 45.8625 72.9385 45.6193 72.827 45.3659C71.1422 41.5403 63.2401 23.5545 61.9505 20.6232C61.8897 20.4839 61.7377 20.3952 61.6008 20.3952ZM75.4771 11.5835C75.2567 11.5835 75.2542 11.733 75.4923 11.9433L87.7167 22.7514C87.8434 22.8629 87.9194 22.9186 87.9448 22.9186C87.9726 22.9186 87.9245 22.8376 87.7927 22.6805L79.3231 12.5082C79.1077 12.2498 78.6947 12.0066 78.4034 11.9686L75.5658 11.5911C75.5329 11.586 75.505 11.586 75.4797 11.586L75.4771 11.5835ZM78.1222 23.78L66.6198 18.87C66.3665 18.7611 66.3386 18.414 66.5717 18.267L73.2907 13.998C73.4604 13.8916 73.6834 13.9498 73.7771 14.1272L78.5605 23.3063C78.7099 23.59 78.4186 23.9042 78.1247 23.7775L78.1222 23.78ZM74.0077 11.7786C73.9443 11.7786 73.8835 11.7963 73.8303 11.8293L63.235 18.5634C62.9588 18.7383 63.0475 19.0169 63.4301 19.1791L81.735 26.9926C81.8211 27.0306 81.8972 27.0483 81.9554 27.0483C82.1302 27.0483 82.1733 26.8912 82.039 26.6328L74.4688 12.1054C74.3624 11.9002 74.1799 11.7786 74.0102 11.7786H74.0077ZM88.9785 27.9072L90.5771 36.6125C90.6075 36.7848 90.3744 36.8684 90.2883 36.7189L85.8672 29.1436C85.8166 29.0574 85.8596 28.9485 85.9534 28.9181L88.9785 27.9072ZM89.8551 26.0121C89.8171 26.0121 89.7816 26.0172 89.7436 26.0298L83.9848 27.9528C83.7086 28.044 83.6504 28.4038 83.8531 28.7509L93.0271 43.5468C93.1208 43.6963 93.3514 43.6076 93.321 43.4354L90.2858 26.4555C90.2376 26.1894 90.0552 26.0121 89.8551 26.0121ZM86.5234 24.6972L83.9899 25.5206C83.9164 25.5434 83.8379 25.513 83.8024 25.4446L80.7849 19.7035C80.7038 19.549 80.8964 19.3995 81.0256 19.5135L86.5766 24.4286C86.6678 24.5097 86.6349 24.6566 86.5209 24.6946L86.5234 24.6972ZM75.3353 12.4804C75.2795 12.4804 75.2846 12.5614 75.3682 12.7185L82.7687 26.8C82.9207 27.0914 83.2121 27.2865 83.4654 27.2865C83.511 27.2865 83.5566 27.2789 83.5997 27.2662L89.3813 25.3863C89.622 25.3078 89.5865 25.0367 89.3002 24.7859L75.5835 12.6375C75.4645 12.5336 75.3809 12.4804 75.3353 12.4804Z" fill="url(#paint1_linear_1016_1585)"/>
</g>
<defs>
<linearGradient id="paint0_linear_1016_1585" x1="0.200271" y1="33.1212" x2="77.5877" y2="33.1212" gradientUnits="userSpaceOnUse">
<stop stop-color="#5D4696"/>
<stop offset="0.14" stop-color="#5D4696"/>
<stop offset="0.38" stop-color="#E72766"/>
<stop offset="0.68" stop-color="#F4981C"/>
<stop offset="1" stop-color="#FDD298"/>
</linearGradient>
<linearGradient id="paint1_linear_1016_1585" x1="42.1558" y1="28.723" x2="93.3235" y2="28.723" gradientUnits="userSpaceOnUse">
<stop stop-color="#B08419"/>
<stop offset="0.02" stop-color="#B68C26"/>
<stop offset="0.05" stop-color="#C29E40"/>
<stop offset="0.09" stop-color="#CCAB55"/>
<stop offset="0.14" stop-color="#D3B563"/>
<stop offset="0.2" stop-color="#D7BB6C"/>
<stop offset="0.28" stop-color="#D9BD6F"/>
<stop offset="0.31" stop-color="#DABF74"/>
<stop offset="0.41" stop-color="#DFCA8A"/>
<stop offset="0.48" stop-color="#E2CF92"/>
<stop offset="1" stop-color="#724C17"/>
</linearGradient>
<clipPath id="clip0_1016_1585">
<rect width="141" height="79.7943" fill="white"/>
</clipPath>
</defs>
</svg>
