<svg xmlns="http://www.w3.org/2000/svg" width="35.851" height="30" viewBox="0 0 35.851 30">
  <path id="Path_31067" data-name="Path 31067" d="M219.233,116.509l-7.936-4.874a.582.582,0,0,0-.724.1l-8.991,9.464-9.029-9.465a.58.58,0,0,0-.722-.094l-7.9,4.833a.579.579,0,0,0-.277.494v18.793a.582.582,0,0,0,.306.511l9.737,5.215a.579.579,0,0,0,.853-.511V129.619l6.618,6.687a.578.578,0,0,0,.411.172h0a.579.579,0,0,0,.411-.171l6.66-6.693v11.356a.58.58,0,0,0,.854.511l9.7-5.216a.58.58,0,0,0,.305-.51V117A.58.58,0,0,0,219.233,116.509Zm-5.525,7.405,4.642-5.357V133.28Zm-4.667,3.824-3.18-1.068,4.913-12.411,1.626,9.4Zm-1.028.878-4.854,4.878,2.274-5.745Zm3.771-15.321,6.261,3.845-4.666,5.383Zm-2.43,1.4-4.594,11.6-5.053-1.7,2.275-2.149,0,0c.008-.007.019-.01.026-.018Zm-24.189,2.378,5.869-3.592-2.507,7ZM188.1,121.7l-3.285,10.322V118.375Zm4.124-8.11,5.22,10.257-7.941-2.666Zm2.218,1.8,6.318,6.623-1.99,1.88Zm-9.508,20.081,4.045-12.711,4.413,5.627V140Zm9.557-7.562-4.081-5.2,13.92,4.673-2.961,7.481Zm15.32.713,3.081-3.737,5.267,10.625L209.814,140Z" transform="translate(-183.658 -111.55)" fill="#47434d"/>
</svg>
